<svg width="40" height="32" viewBox="0 0 40 32" fill="none" xmlns="http://www.w3.org/2000/svg">
<path fill-rule="evenodd" clip-rule="evenodd" d="M11.1921 3.10794H19.7921C21.6242 3.10794 23.2 2.68849 24.7921 1.78566L27.7279 0.107028C27.9758 -0.0356761 28.2558 -0.0356761 28.4958 0.107028C28.7442 0.24932 28.88 0.486886 28.88 0.764045V3.10794H34.8558C36.2642 3.10794 37.4158 4.24834 37.4158 5.64198V13.3315H39.2958C39.68 13.3315 40 13.6483 40 14.0281V17.9719C40 18.3517 39.68 18.6685 39.2958 18.6685H37.4158V20.371C37.4158 22.7154 36.4479 24.8452 34.8879 26.3894C33.3279 27.9335 31.1758 28.8921 28.8079 28.8921H20.2079C18.3758 28.8921 16.8 29.3115 15.2079 30.2143L12.2721 31.893C12.0242 32.0357 11.7442 32.0357 11.5042 31.893C11.2558 31.7507 11.12 31.5131 11.12 31.236V28.8921H5.14417C3.73583 28.8921 2.58417 27.7517 2.58417 26.358V18.6685H0.704167C0.32 18.6685 0 18.3517 0 17.9719V14.0281C0 13.6483 0.32 13.3315 0.704167 13.3315H2.58417V11.629C2.58417 9.28465 3.55208 7.15481 5.11208 5.61063C6.67208 4.06645 8.82417 3.10794 11.1921 3.10794ZM17.2 16C17.2 14.646 16.0879 13.5452 14.72 13.5452C13.3521 13.5452 12.24 14.646 12.24 16C12.24 17.354 13.3521 18.4548 14.72 18.4548C16.0879 18.4548 17.2 17.354 17.2 16ZM27.76 16C27.76 14.646 26.6479 13.5452 25.28 13.5452C23.9121 13.5452 22.8 14.646 22.8 16C22.8 17.354 23.9121 18.4548 25.28 18.4548C26.6479 18.4548 27.76 17.354 27.76 16ZM34.2158 16V6.28373C33.4642 6.28373 32.7042 6.28373 31.9521 6.28373C30.2558 6.28373 28.88 4.91361 28.88 3.24281V3.11619L26.6321 4.39888C24.3679 5.68982 22.1358 6.28373 19.52 6.28373H11.1921C9.70417 6.28373 8.36 6.88548 7.37583 7.85925C6.39208 8.83344 5.78417 10.164 5.78417 11.6368V25.7245C6.53583 25.7245 7.29583 25.7245 8.04792 25.7245C9.74417 25.7245 11.12 27.0942 11.12 28.765V28.8921L13.3679 27.609C15.6321 26.3184 17.8642 25.7245 20.48 25.7245H28.8079C30.2958 25.7245 31.64 25.1224 32.6242 24.1486C33.6079 23.1744 34.2158 21.8443 34.2158 20.371V16Z" fill="#8A2BE2"/>
</svg>
